<svg width="190" height="38" viewBox="0 0 190 38" xmlns="http://www.w3.org/2000/svg">
  <defs>
    <!-- mimik radial gradient -->
    <radialGradient id="mimikGrad" cx="0" cy="0" r="1" gradientUnits="userSpaceOnUse" gradientTransform="translate(50 26) rotate(-10) scale(50 65)">
      <stop offset="0.03" stop-color="#505050"/>
      <stop offset="0.29" stop-color="#414141"/>
      <stop offset="0.51" stop-color="#6B6B6B"/>
      <stop offset="0.70" stop-color="#666666"/>
      <stop offset="0.95" stop-color="#404040"/>
    </radialGradient>
    <!-- Rainbow gradient for dots -->
    <linearGradient id="rainbowDots" x1="0%" y1="50%" x2="100%" y2="50%">
      <stop offset="0%" stop-color="#DF3535"/>
      <stop offset="15%" stop-color="#F27D2E"/>
      <stop offset="36%" stop-color="#F6921E"/>
      <stop offset="54%" stop-color="#FFC800"/>
      <stop offset="71%" stop-color="#B1CF36"/>
      <stop offset="77%" stop-color="#7BC62C"/>
      <stop offset="88%" stop-color="#57BF6C"/>
      <stop offset="98%" stop-color="#29B5BE"/>
    </linearGradient>
    <!-- mimOE gradient -->
    <linearGradient id="mimGradient" x1="0%" y1="0%" x2="0%" y2="100%">
      <stop offset="0%" stop-color="#6B6B6B"/>
      <stop offset="100%" stop-color="#4A4A4A"/>
    </linearGradient>
  </defs>

  <!-- mimik logo scaled to 0.4x, positioned so letters baseline aligns with mimOE text -->
  <g transform="translate(-1, 2) scale(0.4)">
    <!-- Rainbow dots -->
    <path d="M112.342 8.4751C110.52 8.4751 109.041 9.945 109.041 11.7649C109.041 13.5848 110.516 15.0547 112.342 15.0547C114.167 15.0547 115.642 13.5848 115.642 11.7649C115.642 9.945 114.167 8.4751 112.342 8.4751ZM85.3182 17.8195C83.1018 17.8195 81.3066 19.6088 81.3066 21.818C81.3066 24.0273 83.1018 25.8165 85.3182 25.8165C87.5347 25.8165 89.3298 24.0273 89.3298 21.818C89.3298 19.6088 87.5347 17.8195 85.3182 17.8195ZM98.1518 11.0562C96.3303 11.0562 94.8556 12.5305 94.8556 14.346C94.8556 16.1615 96.3347 17.6358 98.1518 17.6358C99.9689 17.6358 101.452 16.1615 101.452 14.346C101.452 12.5305 99.9776 11.0562 98.1518 11.0562ZM139.303 17.8195C137.087 17.8195 135.292 19.6088 135.292 21.818C135.292 24.0273 137.087 25.8165 139.303 25.8165C141.52 25.8165 143.315 24.0273 143.315 21.818C143.315 19.6088 141.52 17.8195 139.303 17.8195ZM126.308 11.0562C124.486 11.0562 123.007 12.5305 123.007 14.346C123.007 16.1615 124.486 17.6358 126.308 17.6358C128.129 17.6358 129.608 16.1615 129.608 14.346C129.608 12.5305 128.129 11.0562 126.308 11.0562Z" fill="url(#rainbowDots)"/>

    <!-- m letter -->
    <path d="M47.7633 43.152C49.6814 44.0401 51.3931 45.1994 52.9029 46.6343H52.8985C54.3381 48.1392 55.5056 49.7797 56.3966 51.6915C57.2173 53.5376 57.6299 55.655 57.6299 57.8423V80.2416C57.6299 80.924 57.3534 81.6065 56.875 82.1533C56.3264 82.7658 55.6373 83.0414 54.8165 83.0414H50.5679C49.7472 83.0414 49.0625 82.7658 48.5139 82.1533C48.0311 81.6065 47.7589 80.924 47.7589 80.2416V57.8423C47.7589 56.1318 47.1401 54.7669 45.977 53.5376C44.7437 52.3739 43.2382 51.7615 41.5221 51.7615C39.806 51.7615 38.4366 52.3739 37.2033 53.5376C36.0358 54.7669 35.4213 56.1362 35.4213 57.8423V80.2416C35.4213 80.924 35.1448 81.6065 34.6664 82.1533C34.1178 82.7658 33.4287 83.0414 32.608 83.0414H28.3594C27.5386 83.0414 26.8539 82.7658 26.3053 82.1533C25.8269 81.6065 25.5504 80.924 25.5504 80.2416V57.8423C25.5504 56.1318 25.0017 54.7669 23.7684 53.5376C22.5351 52.3739 21.2315 51.7615 19.4496 51.7615C17.6676 51.7615 16.228 52.3739 14.9947 53.5376C13.8272 54.7669 13.2128 56.1362 13.2128 57.8423V80.2416C13.2128 80.924 12.9363 81.6065 12.4578 82.1533C11.9092 82.7658 11.2201 83.0414 10.3994 83.0414H6.15078C5.46609 83.0414 4.7814 82.7658 4.23277 82.1533C3.68414 81.6065 3.3418 80.994 3.3418 80.2416V57.8423C3.3418 55.655 3.82459 53.5376 4.64534 51.6915C5.4661 49.7797 6.63358 48.0692 8.07319 46.6343C9.57863 45.1994 11.2948 44.0401 13.2128 43.152C17.119 41.5159 21.7802 41.5158 25.7567 43.222C27.543 44.0401 29.1187 45.0681 30.488 46.4331C31.8618 45.0681 33.4375 44.0401 35.2194 43.222C39.1959 41.5115 43.9229 41.5115 47.7633 43.152Z" fill="url(#mimikGrad)"/>

    <!-- i letter -->
    <path d="M69.3531 41.9927H73.6017C74.2863 41.9927 74.971 42.2683 75.5197 42.7451C76.0683 43.2876 76.4106 43.9745 76.4106 44.7925V80.3116C76.4106 82.0833 75.3836 83.1114 73.6017 83.1114H69.3531C67.5711 83.1114 66.5441 82.0877 66.5441 80.3116V44.7925C66.5441 43.0164 67.5711 41.9927 69.3531 41.9927Z" fill="url(#mimikGrad)"/>
    <path d="M76.2351 32.1408C76.2351 34.8006 74.0713 36.9574 71.4027 36.9574C68.7342 36.9574 66.5704 34.8006 66.5704 32.1408C66.5704 29.481 68.7342 27.3242 71.4027 27.3242C74.0713 27.3242 76.2351 29.481 76.2351 32.1408Z" fill="url(#mimikGrad)"/>

    <!-- second m letter -->
    <path d="M129.746 43.152C131.664 44.0401 133.376 45.1994 134.886 46.6343C136.326 48.1392 137.489 49.7797 138.38 51.6915C139.2 53.5376 139.613 55.655 139.613 57.8423V80.2416C139.613 80.924 139.336 81.6065 138.858 82.1533C138.314 82.7658 137.629 83.0414 136.804 83.0414H132.555C131.73 83.0414 131.046 82.7658 130.497 82.1533C130.018 81.6065 129.742 80.924 129.742 80.2416V57.8423C129.742 56.1318 129.123 54.7669 127.96 53.5376C126.727 52.3739 125.221 51.7615 123.505 51.7615C121.789 51.7615 120.42 52.3739 119.186 53.5376C118.019 54.7669 117.404 56.1362 117.404 57.8423V80.2416C117.404 80.924 117.128 81.6065 116.649 82.1533C116.101 82.7658 115.412 83.0414 114.591 83.0414H110.342C109.522 83.0414 108.837 82.7658 108.288 82.1533C107.805 81.6065 107.533 80.924 107.533 80.2416V57.8423C107.533 56.1318 106.985 54.7669 105.751 53.5376C104.518 52.3739 103.215 51.7615 101.433 51.7615C99.6507 51.7615 98.211 52.3739 96.9777 53.5376C95.8146 54.7669 95.1958 56.1362 95.1958 57.8423V80.2416C95.1958 80.924 94.9193 81.6065 94.4408 82.1533C93.8878 82.7658 93.2075 83.0414 92.3824 83.0414H88.1338C87.4491 83.0414 86.7644 82.7658 86.2158 82.1533C85.6671 81.6065 85.3248 80.994 85.3248 80.2416V57.8423C85.3248 55.655 85.8076 53.5376 86.6283 51.6915C87.4491 49.7797 88.6166 48.0692 90.0562 46.6343C91.5616 45.1994 93.2777 44.0401 95.1958 43.152C99.102 41.5159 103.763 41.5158 107.74 43.222C109.522 44.0401 111.097 45.0681 112.471 46.4331C113.845 45.0681 115.42 44.0401 117.202 43.222C121.179 41.5115 125.906 41.5115 129.746 43.152Z" fill="url(#mimikGrad)"/>

    <!-- second i letter -->
    <path d="M151.332 41.9927H155.585C156.269 41.9927 156.954 42.2683 157.503 42.7451C158.051 43.2876 158.394 43.9745 158.394 44.7925V80.3116C158.394 82.0833 157.367 83.1114 155.585 83.1114H151.332C149.55 83.1114 148.523 82.0877 148.523 80.3116V44.7925C148.523 43.0164 149.55 41.9927 151.332 41.9927Z" fill="url(#mimikGrad)"/>
    <path d="M158.297 32.1408C158.297 34.8006 156.133 36.9574 153.46 36.9574C150.792 36.9574 148.628 34.8006 148.628 32.1408C148.628 29.481 150.787 27.3242 153.46 27.3242C156.133 27.3242 158.297 29.481 158.297 32.1408Z" fill="url(#mimikGrad)"/>

    <!-- k letter -->
    <path d="M199.387 44.8581V51.4468H199.392C199.392 53.6998 198.913 55.8872 198.022 57.8689C197.272 59.6407 196.175 61.2156 194.871 62.5805C196.17 63.8798 197.267 65.4503 198.022 67.1608C198.913 69.1426 199.392 71.26 199.392 73.5829V80.3772C199.392 81.0597 199.12 81.7421 198.571 82.2889C198.093 82.9058 197.408 83.177 196.583 83.177H192.334C191.509 83.177 190.824 82.9014 190.276 82.2889C189.793 81.7421 189.521 81.0597 189.521 80.3772V73.5829C189.521 71.8724 188.906 70.4375 187.739 69.2782C186.505 68.0489 185.066 67.5021 183.284 67.5021H177.183V80.3772C177.183 81.0597 176.907 81.7421 176.428 82.2889C175.88 82.9058 175.191 83.177 174.37 83.177H170.121C169.3 83.177 168.616 82.9014 168.067 82.2889C167.584 81.7421 167.312 81.0597 167.312 80.3772V44.8581C167.312 43.082 168.339 42.0583 170.121 42.0583H174.37C176.156 42.0583 177.183 43.082 177.183 44.8581V57.6633H183.284C185.066 57.6633 186.505 57.0508 187.739 55.8871C188.906 54.6578 189.521 53.2229 189.521 51.4468V44.8581C189.521 43.082 190.548 42.0583 192.33 42.0583H196.578C198.36 42.0583 199.387 43.082 199.387 44.8581Z" fill="url(#mimikGrad)"/>
  </g>

  <!-- Separator - aligned with mimik text baseline -->
  <text x="82" y="35" font-family="Nunito, Arial, sans-serif" font-size="22" font-weight="400" fill="#CCCCCC">|</text>

  <!-- mimOE as vector paths matching mimik style -->
  <g transform="translate(89, 2) scale(0.4)">
    <!-- m letter (copied from mimik) -->
    <path d="M47.7633 43.152C49.6814 44.0401 51.3931 45.1994 52.9029 46.6343H52.8985C54.3381 48.1392 55.5056 49.7797 56.3966 51.6915C57.2173 53.5376 57.6299 55.655 57.6299 57.8423V80.2416C57.6299 80.924 57.3534 81.6065 56.875 82.1533C56.3264 82.7658 55.6373 83.0414 54.8165 83.0414H50.5679C49.7472 83.0414 49.0625 82.7658 48.5139 82.1533C48.0311 81.6065 47.7589 80.924 47.7589 80.2416V57.8423C47.7589 56.1318 47.1401 54.7669 45.977 53.5376C44.7437 52.3739 43.2382 51.7615 41.5221 51.7615C39.806 51.7615 38.4366 52.3739 37.2033 53.5376C36.0358 54.7669 35.4213 56.1362 35.4213 57.8423V80.2416C35.4213 80.924 35.1448 81.6065 34.6664 82.1533C34.1178 82.7658 33.4287 83.0414 32.608 83.0414H28.3594C27.5386 83.0414 26.8539 82.7658 26.3053 82.1533C25.8269 81.6065 25.5504 80.924 25.5504 80.2416V57.8423C25.5504 56.1318 25.0017 54.7669 23.7684 53.5376C22.5351 52.3739 21.2315 51.7615 19.4496 51.7615C17.6676 51.7615 16.228 52.3739 14.9947 53.5376C13.8272 54.7669 13.2128 56.1362 13.2128 57.8423V80.2416C13.2128 80.924 12.9363 81.6065 12.4578 82.1533C11.9092 82.7658 11.2201 83.0414 10.3994 83.0414H6.15078C5.46609 83.0414 4.7814 82.7658 4.23277 82.1533C3.68414 81.6065 3.3418 80.994 3.3418 80.2416V57.8423C3.3418 55.655 3.82459 53.5376 4.64534 51.6915C5.4661 49.7797 6.63358 48.0692 8.07319 46.6343C9.57863 45.1994 11.2948 44.0401 13.2128 43.152C17.119 41.5159 21.7802 41.5158 25.7567 43.222C27.543 44.0401 29.1187 45.0681 30.488 46.4331C31.8618 45.0681 33.4375 44.0401 35.2194 43.222C39.1959 41.5115 43.9229 41.5115 47.7633 43.152Z" fill="url(#mimGradient)"/>

    <!-- i letter (copied from mimik) -->
    <path d="M69.3531 41.9927H73.6017C74.2863 41.9927 74.971 42.2683 75.5197 42.7451C76.0683 43.2876 76.4106 43.9745 76.4106 44.7925V80.3116C76.4106 82.0833 75.3836 83.1114 73.6017 83.1114H69.3531C67.5711 83.1114 66.5441 82.0877 66.5441 80.3116V44.7925C66.5441 43.0164 67.5711 41.9927 69.3531 41.9927Z" fill="url(#mimGradient)"/>
    <path d="M76.2351 32.1408C76.2351 34.8006 74.0713 36.9574 71.4027 36.9574C68.7342 36.9574 66.5704 34.8006 66.5704 32.1408C66.5704 29.481 68.7342 27.3242 71.4027 27.3242C74.0713 27.3242 76.2351 29.481 76.2351 32.1408Z" fill="url(#mimGradient)"/>

    <!-- second m letter (copied from mimik) -->
    <path d="M129.746 43.152C131.664 44.0401 133.376 45.1994 134.886 46.6343C136.326 48.1392 137.489 49.7797 138.38 51.6915C139.2 53.5376 139.613 55.655 139.613 57.8423V80.2416C139.613 80.924 139.336 81.6065 138.858 82.1533C138.314 82.7658 137.629 83.0414 136.804 83.0414H132.555C131.73 83.0414 131.046 82.7658 130.497 82.1533C130.018 81.6065 129.742 80.924 129.742 80.2416V57.8423C129.742 56.1318 129.123 54.7669 127.96 53.5376C126.727 52.3739 125.221 51.7615 123.505 51.7615C121.789 51.7615 120.42 52.3739 119.186 53.5376C118.019 54.7669 117.404 56.1362 117.404 57.8423V80.2416C117.404 80.924 117.128 81.6065 116.649 82.1533C116.101 82.7658 115.412 83.0414 114.591 83.0414H110.342C109.522 83.0414 108.837 82.7658 108.288 82.1533C107.805 81.6065 107.533 80.924 107.533 80.2416V57.8423C107.533 56.1318 106.985 54.7669 105.751 53.5376C104.518 52.3739 103.215 51.7615 101.433 51.7615C99.6507 51.7615 98.211 52.3739 96.9777 53.5376C95.8146 54.7669 95.1958 56.1362 95.1958 57.8423V80.2416C95.1958 80.924 94.9193 81.6065 94.4408 82.1533C93.8878 82.7658 93.2075 83.0414 92.3824 83.0414H88.1338C87.4491 83.0414 86.7644 82.7658 86.2158 82.1533C85.6671 81.6065 85.3248 80.994 85.3248 80.2416V57.8423C85.3248 55.655 85.8076 53.5376 86.6283 51.6915C87.4491 49.7797 88.6166 48.0692 90.0562 46.6343C91.5616 45.1994 93.2777 44.0401 95.1958 43.152C99.102 41.5159 103.763 41.5158 107.74 43.222C109.522 44.0401 111.097 45.0681 112.471 46.4331C113.845 45.0681 115.42 44.0401 117.202 43.222C121.179 41.5115 125.906 41.5115 129.746 43.152Z" fill="url(#mimGradient)"/>
  </g>

  <!-- OE letters - larger scale for emphasis -->
  <g transform="translate(76, -6.5) scale(0.5)">
    <!-- O letter (custom, matching mimik style) -->
    <path d="M164 42C152.954 42 144 51.402 144 63C144 74.598 152.954 84 164 84C175.046 84 184 74.598 184 63C184 51.402 175.046 42 164 42ZM164 52C169.523 52 174 57.029 174 63C174 68.971 169.523 74 164 74C158.477 74 154 68.971 154 63C154 57.029 158.477 52 164 52Z" fill-rule="evenodd" fill="#A3CD39"/>

    <!-- E letter (custom, matching mimik style with rounded corners) -->
    <path d="M192 42C190.343 42 189 43.343 189 45V80C189 81.657 190.343 83 192 83H218C219.657 83 221 81.657 221 80V76C221 74.343 219.657 73 218 73H199V66H213C214.657 66 216 64.657 216 63V59C216 57.343 214.657 56 213 56H199V52H218C219.657 52 221 50.657 221 49V45C221 43.343 219.657 42 218 42H192Z" fill="#A3CD39"/>
  </g>
</svg>
