<svg width="408" height="112" viewBox="0 0 408 112" fill="none" xmlns="http://www.w3.org/2000/svg">
<path d="M345.274 111.682H401.78C404.634 111.592 406.968 109.373 407.177 106.523V101.103C407.199 98.2986 405.13 95.9106 402.344 95.5332C402.219 95.518 402.09 95.5079 401.961 95.4978C401.899 95.4929 401.837 95.488 401.775 95.4825V95.4487H360.525C360.127 96.4917 359.663 97.5131 359.134 98.5053L359.129 98.5151C357.111 102.273 354.293 105.519 350.801 108.19L350.794 108.196C349.064 109.512 347.22 110.676 345.274 111.682Z" fill="#FFFFFF"/>
<path d="M344.638 19.1274L401.775 19.1274V19.1612C401.837 19.1667 401.899 19.1716 401.961 19.1765C402.091 19.1866 402.219 19.1967 402.344 19.2119C405.13 19.5893 407.199 21.9773 407.177 24.7821V30.2015C406.968 33.0514 404.634 35.2705 401.78 35.3606L360.257 35.3606C359.848 34.3622 359.393 33.4042 358.907 32.4898C356.928 28.7658 354.363 25.6654 350.815 22.9402L350.807 22.9335L350.798 22.9269C348.88 21.4693 346.819 20.2006 344.638 19.1274Z" fill="#FFFFFF"/>
<path d="M355.011 34.5742C353.322 31.3966 351.166 28.787 348.128 26.4536C345.023 24.0937 341.467 22.2789 337.571 21.0624C333.443 19.7528 329.195 19.108 324.728 19.1279C320.341 19.1479 316.099 19.786 312.044 21.1554C308.202 22.4384 304.712 24.2998 301.647 26.6863C298.662 29.0263 296.296 31.8117 294.601 34.9627C292.872 38.1602 291.975 41.71 292.002 45.2266V85.8922C291.948 89.5085 292.846 93.1448 294.594 96.4288C296.283 99.5731 298.656 102.352 301.654 104.679C304.725 107.038 308.248 108.853 312.117 110.076C316.226 111.359 320.547 111.998 324.861 111.998C329.175 111.998 333.503 111.353 337.618 110.076C341.5 108.853 345.03 107.038 348.121 104.685C351.146 102.372 353.539 99.5997 355.241 96.4288C356.989 93.1515 357.88 89.5085 357.833 85.9121V45.2466C357.869 41.353 356.699 37.7518 355.011 34.5742ZM338.846 85.5465C338.846 86.8561 338.561 88.1325 337.976 89.349C337.411 90.5456 336.593 91.6225 335.543 92.5532C334.486 93.4905 333.249 94.235 331.88 94.7735C328.921 95.877 321.08 95.877 318.128 94.7735C316.712 94.235 315.436 93.4838 314.339 92.5399C313.275 91.6225 312.444 90.5456 311.873 89.3423C311.288 88.1325 310.995 86.8561 311.002 85.5465V45.559C310.988 44.2494 311.281 42.9731 311.873 41.7632C312.438 40.5666 313.249 39.4897 314.299 38.559C315.369 37.6151 316.626 36.8639 318.022 36.3321C319.471 35.7803 325.465 35.5011 327.073 35.5011C327.12 35.5011 327.16 35.5011 327.206 35.5011C328.795 35.5609 330.377 35.7737 331.82 36.3321C333.216 36.8639 334.472 37.6151 335.536 38.5524C336.586 39.4897 337.404 40.5866 337.969 41.8031C338.547 43.0329 338.84 44.3292 338.84 45.6521L338.846 85.5465Z" fill="#FFFFFF"/>
<path d="M132.523 29.4482H141.053C142.427 29.4482 143.802 30.0015 144.903 30.9588C146.005 32.0478 146.692 33.4267 146.692 35.0691V106.377C146.692 109.934 144.63 111.998 141.053 111.998H132.523C128.946 111.998 126.884 109.942 126.884 106.377V35.0691C126.884 31.5033 128.946 29.4482 132.523 29.4482Z" fill="url(#paint0_radial_779_5)"/>
<path d="M89.1801 31.7756C93.0306 33.5585 96.4671 35.8859 99.4982 38.7666H99.4894C102.38 41.7878 104.723 45.0813 106.512 48.9193C108.16 52.6256 108.988 56.8764 108.988 61.2677V106.236C108.988 107.606 108.433 108.976 107.472 110.074C106.371 111.304 104.988 111.857 103.34 111.857H94.8105C93.1628 111.857 91.7882 111.304 90.6868 110.074C89.7175 108.976 89.1712 107.606 89.1712 106.236V61.2677C89.1712 57.8337 87.9288 55.0935 85.5938 52.6256C83.1178 50.2894 80.0955 49.0598 76.6503 49.0598C73.205 49.0598 70.4559 50.2894 67.9799 52.6256C65.636 55.0935 64.4024 57.8425 64.4024 61.2677V106.236C64.4024 107.606 63.8473 108.976 62.8869 110.074C61.7855 111.304 60.4021 111.857 58.7543 111.857H50.2249C48.5772 111.857 47.2026 111.304 46.1012 110.074C45.1407 108.976 44.5856 107.606 44.5856 106.236V61.2677C44.5856 57.8337 43.4842 55.0935 41.0082 52.6256C38.5322 50.2894 35.9152 49.0598 32.3378 49.0598C28.7604 49.0598 25.8702 50.2894 23.3942 52.6256C21.0504 55.0935 19.8168 57.8425 19.8168 61.2677V106.236C19.8168 107.606 19.2617 108.976 18.3013 110.074C17.1998 111.304 15.8164 111.857 14.1687 111.857H5.63928C4.26471 111.857 2.89013 111.304 1.78871 110.074C0.687287 108.976 0 107.747 0 106.236V61.2677C0 56.8764 0.969254 52.6256 2.61698 48.9193C4.26471 45.0813 6.60854 41.6473 9.49867 38.7666C12.521 35.8859 15.9662 33.5585 19.8168 31.7756C27.6589 28.4909 37.0166 28.4909 44.9997 31.9161C48.586 33.5585 51.7493 35.6224 54.4984 38.3626C57.2564 35.6224 60.4197 33.5585 63.9971 31.9161C71.9802 28.4821 81.4701 28.4821 89.1801 31.7756Z" fill="url(#paint1_radial_779_5)"/>
<path d="M253.768 31.7756C257.619 33.5585 261.055 35.8859 264.086 38.7666C266.976 41.7878 269.311 45.0813 271.1 48.9193C272.748 52.6256 273.576 56.8764 273.576 61.2677V106.236C273.576 107.606 273.021 108.976 272.06 110.074C270.968 111.304 269.593 111.857 267.937 111.857H259.407C257.751 111.857 256.376 111.304 255.275 110.074C254.314 108.976 253.759 107.606 253.759 106.236V61.2677C253.759 57.8337 252.517 55.0935 250.182 52.6256C247.706 50.2894 244.683 49.0598 241.238 49.0598C237.793 49.0598 235.044 50.2894 232.568 52.6256C230.224 55.0935 228.99 57.8425 228.99 61.2677V106.236C228.99 107.606 228.435 108.976 227.475 110.074C226.373 111.304 224.99 111.857 223.342 111.857H214.813C213.165 111.857 211.791 111.304 210.689 110.074C209.72 108.976 209.174 107.606 209.174 106.236V61.2677C209.174 57.8337 208.072 55.0935 205.596 52.6256C203.12 50.2894 200.503 49.0598 196.926 49.0598C193.348 49.0598 190.458 50.2894 187.982 52.6256C185.647 55.0935 184.405 57.8425 184.405 61.2677V106.236C184.405 107.606 183.85 108.976 182.889 110.074C181.779 111.304 180.413 111.857 178.757 111.857H170.227C168.853 111.857 167.478 111.304 166.377 110.074C165.275 108.976 164.588 107.747 164.588 106.236V61.2677C164.588 56.8764 165.557 52.6256 167.205 48.9193C168.853 45.0813 171.196 41.6473 174.087 38.7666C177.109 35.8859 180.554 33.5585 184.405 31.7756C192.247 28.4909 201.605 28.4909 209.588 31.9161C213.165 33.5585 216.328 35.6224 219.086 38.3626C221.844 35.6224 225.008 33.5585 228.585 31.9161C236.568 28.4821 246.058 28.4821 253.768 31.7756Z" fill="url(#paint2_radial_779_5)"/>
<path d="M146.339 9.66969C146.339 15.0095 141.995 19.3394 136.638 19.3394C131.281 19.3394 126.937 15.0095 126.937 9.66969C126.937 4.32984 131.281 0 136.638 0C141.995 0 146.339 4.32984 146.339 9.66969Z" fill="url(#paint3_linear_779_5)"/>
<path d="M362.246 73.5212L387.314 73.521C390.167 73.4309 392.501 71.2118 392.71 68.3619L392.71 62.9425C392.733 60.1377 390.663 57.7497 387.877 57.3723C387.752 57.3571 387.624 57.347 387.495 57.3369C387.433 57.332 387.37 57.3271 387.308 57.3216V57.2878L362.246 57.2881V73.5212Z" fill="#FFFFFF"/>
<defs>
<radialGradient id="paint0_radial_779_5" cx="0" cy="0" r="1" gradientUnits="userSpaceOnUse" gradientTransform="translate(196.794 63.0206) rotate(-9.66761) scale(204.494 263.13)">
<stop offset="0.0285662" stop-color="#FFFFFF"/>
<stop offset="0.292608" stop-color="#E5E7EB"/>
<stop offset="0.506396" stop-color="#FFFFFF"/>
<stop offset="0.703119" stop-color="#F3F4F6"/>
<stop offset="0.947251" stop-color="#E5E7EB"/>
</radialGradient>
<radialGradient id="paint1_radial_779_5" cx="0" cy="0" r="1" gradientUnits="userSpaceOnUse" gradientTransform="translate(196.794 63.0206) rotate(-9.66761) scale(204.494 263.13)">
<stop offset="0.0285662" stop-color="#FFFFFF"/>
<stop offset="0.292608" stop-color="#E5E7EB"/>
<stop offset="0.506396" stop-color="#FFFFFF"/>
<stop offset="0.703119" stop-color="#F3F4F6"/>
<stop offset="0.947251" stop-color="#E5E7EB"/>
</radialGradient>
<radialGradient id="paint2_radial_779_5" cx="0" cy="0" r="1" gradientUnits="userSpaceOnUse" gradientTransform="translate(196.794 63.0206) rotate(-9.66761) scale(204.494 263.13)">
<stop offset="0.0285662" stop-color="#FFFFFF"/>
<stop offset="0.292608" stop-color="#E5E7EB"/>
<stop offset="0.506396" stop-color="#FFFFFF"/>
<stop offset="0.703119" stop-color="#F3F4F6"/>
<stop offset="0.947251" stop-color="#E5E7EB"/>
</radialGradient>
<linearGradient id="paint3_linear_779_5" x1="130.455" y1="29.9829" x2="152.427" y2="15.6692" gradientUnits="userSpaceOnUse">
<stop offset="0.208697" stop-color="#E6352B"/>
<stop offset="0.397224" stop-color="#F29220"/>
<stop offset="0.558876" stop-color="#FCC30D"/>
<stop offset="0.618985" stop-color="#FFD109"/>
<stop offset="0.82042" stop-color="#ABC837"/>
<stop offset="0.971596" stop-color="#41ABB5"/>
</linearGradient>
</defs>
</svg>
